<svg width="598" height="174" viewBox="0 0 598 174" fill="none" xmlns="http://www.w3.org/2000/svg">
<path d="M235.96 146.187C239.189 146.187 242.101 144.9 244.2 142.801V142.786C246.314 140.687 247.621 137.76 247.621 134.546C247.621 131.338 246.314 128.426 244.2 126.306H244.215C242.101 124.207 239.189 122.9 235.96 122.9C232.731 122.9 229.819 124.207 227.741 126.286V126.301C225.627 128.416 224.319 131.327 224.319 134.541C224.319 137.77 225.627 140.681 227.726 142.78L227.741 142.796C229.825 144.895 232.731 146.181 235.96 146.181L235.96 146.187ZM357.736 133.291L358.549 133.275C358.778 133.082 359.022 132.905 359.309 132.765L421.856 99.3381L407.569 61.7701L330.454 102.743L335.199 115.212C336.189 115.056 337.194 114.967 338.215 114.967C343.611 114.967 348.517 117.17 352.059 120.702C355.324 123.967 357.439 128.395 357.736 133.296L357.736 133.291ZM375.267 133.187L419.876 132.905C420.282 128.161 422.366 123.89 425.553 120.702V120.718C426.574 119.697 427.725 118.775 428.959 117.999L424.689 106.78L375.267 133.187ZM420.824 140.791L356.621 141.197C355.632 143.931 354.064 146.385 352.054 148.395L352.038 148.379C351.772 148.645 351.507 148.911 351.225 149.155L356.585 158.416L358.543 156.9C360.272 155.562 362.757 155.879 364.101 157.603C365.439 159.332 365.142 161.817 363.413 163.161L358.653 166.864C358.335 167.249 357.95 167.603 357.486 167.869C357.361 167.942 357.22 168.009 357.08 168.082L352.423 171.718C350.694 173.056 348.189 172.739 346.851 171.015C345.512 169.286 345.83 166.801 347.554 165.457L350.288 163.322L344.377 153.129C342.434 153.78 340.356 154.134 338.205 154.134C332.809 154.134 327.924 151.947 324.377 148.4L324.361 148.384C322.262 146.27 320.622 143.692 319.653 140.801L257.445 141.192C257.216 141.207 256.987 141.207 256.757 141.192L254.377 141.207C253.408 143.942 251.82 146.395 249.809 148.405V148.39C249.544 148.655 249.262 148.921 248.981 149.166L254.361 158.426L256.32 156.91C258.049 155.572 260.533 155.89 261.877 157.614C263.216 159.343 262.898 161.827 261.174 163.171L256.414 166.874C256.112 167.259 255.726 167.614 255.268 167.879C255.127 167.952 255.002 168.02 254.862 168.093L250.19 171.728C248.461 173.067 245.976 172.749 244.632 171.025C243.294 169.296 243.591 166.811 245.32 165.468L248.07 163.332L242.164 153.14C240.205 153.791 238.143 154.145 235.971 154.145C230.591 154.145 225.705 151.957 222.159 148.41L222.143 148.395C220.029 146.28 218.404 143.702 217.435 140.811L155.206 141.202C154.977 141.218 154.747 141.218 154.534 141.202L153.544 141.218C152.555 143.937 150.987 146.384 148.977 148.395L148.961 148.41C148.695 148.676 148.43 148.921 148.148 149.171L153.529 158.431L155.471 156.916C157.201 155.577 159.685 155.895 161.044 157.619C162.383 159.348 162.065 161.832 160.341 163.176L155.581 166.879C155.279 167.265 154.893 167.619 154.435 167.884C154.294 167.957 154.154 168.025 154.029 168.098L149.357 171.733C147.628 173.072 145.143 172.754 143.784 171.03C142.445 169.301 142.763 166.817 144.487 165.473L147.221 163.337L141.315 153.145C139.372 153.796 137.294 154.15 135.143 154.15C129.763 154.15 124.862 151.963 121.315 148.416L121.3 148.4C117.893 144.978 115.727 140.306 115.586 135.155L106.857 133.514C104.367 142.9 99.4297 151.296 92.7635 157.962C82.9197 167.785 69.3422 173.875 54.3475 173.875C39.3368 173.875 25.7542 167.791 15.9315 157.962C6.08775 148.14 0.00482178 134.541 0.00482178 119.547C0.00482178 104.536 6.08815 90.9532 15.9315 81.1305C25.7544 71.3076 39.3382 65.2185 54.3475 65.2185C66.8683 65.2185 78.4262 69.4529 87.6128 76.5934L102.607 59.9054L97.8992 47.5044C97.7742 47.2023 97.7065 46.9054 97.6701 46.6033C92.3419 46.2492 87.7378 45.0669 84.7586 43.4107C83.2222 42.8273 81.8992 42.1398 80.8783 41.3481C78.3887 40.0096 76.7325 37.52 76.7325 34.6815V34.5408C76.6804 34.1867 76.6439 33.8169 76.6439 33.4471C76.6439 30.9575 77.9147 28.7388 79.8887 27.3274C80.5762 26.6399 81.4564 26.218 82.4095 26.218C87.4199 26.218 91.4772 30.5201 98.8828 31.0149C103.414 31.3326 108.424 31.5253 112.675 29.7441C119.414 26.9419 124.914 29.0722 124.914 35.3692C124.914 37.9421 123.326 40.1869 121.019 41.2962C120.138 41.9473 119.024 42.5462 117.701 43.0932C115.055 44.7338 110.893 45.9681 105.972 46.4629L121.529 87.3482L192.945 57.6602C189.101 56.6394 185.362 55.4884 181.726 54.1498C174.211 51.3477 167.314 47.7124 161.475 42.6498C160.856 42.1029 160.434 41.4155 160.241 40.655L156.465 26.3844L143.627 29.0146C141.491 29.4365 139.392 28.0615 138.97 25.9261C138.528 23.7906 139.903 21.6917 142.038 21.2698L158.371 17.9365C160.47 17.4052 162.606 18.6761 163.168 20.7594L167.58 37.4474C172.45 41.4526 178.215 44.4162 184.497 46.7444C189.419 48.5777 194.711 50.0413 200.18 51.3277L198.732 47.4996C198.628 47.1975 198.539 46.9006 198.503 46.5985C193.175 46.2444 188.571 45.0621 185.607 43.4058C184.055 42.8225 182.732 42.135 181.711 41.3433C179.221 40.0048 177.565 37.5152 177.565 34.6767V34.536C177.513 34.1819 177.477 33.8121 177.477 33.4423C177.477 30.9527 178.763 28.734 180.742 27.3226C181.414 26.6351 182.294 26.2132 183.263 26.2132C188.253 26.2132 192.31 30.5153 199.736 31.0101C204.268 31.3278 209.278 31.5205 213.528 29.7393C220.247 26.9371 225.752 29.0674 225.752 35.3643C225.752 37.9373 224.164 40.1821 221.857 41.2914C220.992 41.9424 219.862 42.5414 218.539 43.0883C215.908 44.729 211.731 45.9633 206.81 46.4581L225.383 95.2808L295.41 58.0834C291.019 56.974 286.712 55.6824 282.587 54.1512C275.071 51.349 268.175 47.7137 262.336 42.6511C261.701 42.1043 261.294 41.4168 261.102 40.6564L257.31 26.3857L244.471 29.016C242.336 29.4378 240.258 28.0628 239.815 25.9274C239.372 23.7919 240.768 21.693 242.904 21.2711L259.237 17.9378C261.336 17.4066 263.471 18.6774 264.018 20.7607L268.43 37.4488C273.315 41.454 279.065 44.4175 285.347 46.7457C290.743 48.7561 296.566 50.3082 302.582 51.6832L300.977 47.5009C300.873 47.1988 300.8 46.9019 300.764 46.5998C295.42 46.2457 290.816 45.0634 287.852 43.4072C286.3 42.8238 284.993 42.1364 283.972 41.3446C281.483 40.0061 279.811 37.5165 279.811 34.678V34.5373C279.759 34.1832 279.738 33.8134 279.738 33.4436C279.738 30.954 281.009 28.7353 282.983 27.3239C283.67 26.6364 284.535 26.2145 285.503 26.2145C290.493 26.2145 294.571 30.5166 301.977 31.0114C306.508 31.3291 311.518 31.5218 315.769 29.7406C322.508 26.9385 327.993 29.0687 327.993 35.3657C327.993 37.9386 326.425 40.1834 324.097 41.2927C323.232 41.9438 322.123 42.5427 320.8 43.0897C318.154 44.7303 313.993 45.9646 309.071 46.4594L327.644 95.2821L397.671 58.0847C393.259 56.9754 388.973 55.6837 384.832 54.1525C377.317 51.3503 370.42 47.715 364.582 42.6525C363.962 42.1056 363.54 41.4181 363.347 40.6577L359.571 26.387L346.733 29.0173C344.597 29.4391 342.498 28.0641 342.076 25.9287C341.634 23.7933 343.009 21.6943 345.144 21.2725L361.477 17.9391C363.576 17.4079 365.712 18.6787 366.274 20.7621L370.665 37.4501C375.55 41.4553 381.301 44.4189 387.597 46.747C392.623 48.6325 398.055 50.1167 403.649 51.4033L402.17 47.5074C402.045 47.2053 401.977 46.9085 401.941 46.6064C396.613 46.2522 392.008 45.07 389.029 43.4137C387.493 42.8304 386.17 42.1429 385.149 41.3512C382.659 40.0126 381.003 37.523 381.003 34.6845V34.5439C380.951 34.1897 380.915 33.8199 380.915 33.4501C380.915 30.9605 382.185 28.7419 384.18 27.3304C384.852 26.6429 385.732 26.221 386.685 26.221C391.696 26.221 395.753 30.5231 403.159 31.0179C407.711 31.3357 412.7 31.5284 416.951 29.7471C423.69 26.945 429.19 29.0752 429.19 35.3722C429.19 37.9451 427.602 40.1899 425.294 41.2993C424.414 41.9503 423.3 42.5493 421.977 43.0962C419.346 44.7369 415.169 45.9711 410.247 46.4659L428.945 95.5913L503.923 55.5339L495.684 30.1699C495.137 28.4773 495.788 26.6751 497.163 25.7063C500.689 23.0085 504.043 20.0813 506.83 16.5501C508.647 14.2741 510.236 11.7167 511.538 8.75312L481.111 8.8052C478.939 8.8052 477.179 7.0396 477.179 4.85214C477.179 2.66467 478.945 0.899071 481.111 0.899071L516.918 0.826154C517.324 0.810529 517.746 0.862611 518.152 0.966779C520.267 1.55011 521.501 3.73758 520.923 5.83651C519.158 12.1854 516.408 17.2324 513.022 21.4819C510.34 24.8673 507.288 27.7266 504.064 30.336L512.829 57.32C513.147 57.8512 513.34 58.4502 513.392 59.0492L517.465 71.5908C525.084 67.5179 533.798 65.2053 543.043 65.2053C558.054 65.2053 571.637 71.2887 581.459 81.1173C591.303 90.9403 597.386 104.524 597.386 119.533C597.386 134.528 591.303 148.127 581.459 157.949C571.636 167.772 558.053 173.861 543.043 173.861C528.049 173.861 514.47 167.778 504.627 157.949C494.804 148.126 488.715 134.528 488.715 119.533C488.715 104.523 494.799 90.94 504.627 81.1173C506.482 79.2632 508.471 77.5548 510.57 75.9871L507.659 67.0444L455.185 122.956C457.586 126.201 458.998 130.222 458.998 134.561C458.998 139.956 456.81 144.842 453.263 148.389L453.248 148.404C452.982 148.67 452.717 148.915 452.435 149.165L457.816 158.425L459.774 156.909C461.482 155.571 463.988 155.889 465.331 157.612C466.67 159.342 466.352 161.826 464.628 163.17L459.868 166.873C459.566 167.258 459.18 167.612 458.722 167.878C458.581 167.951 458.456 168.019 458.316 168.092L453.644 171.727C451.915 173.066 449.43 172.748 448.086 171.024C446.748 169.295 447.045 166.81 448.774 165.467L451.508 163.331L445.602 153.139C443.659 153.79 441.597 154.144 439.43 154.144C434.05 154.144 429.165 151.956 425.602 148.409V148.394C423.488 146.279 421.863 143.701 420.873 140.81L420.824 140.791ZM327.783 118.004L323.392 106.488L273.157 133.177L318.699 132.911C319.089 128.15 321.188 123.895 324.36 120.708L324.376 120.723C325.397 119.703 326.548 118.781 327.782 118.005L327.783 118.004ZM320.553 99.0254L306.215 61.2961L228.199 102.744L232.944 115.213C233.933 115.057 234.938 114.968 235.959 114.968C241.355 114.968 246.24 117.171 249.787 120.703H249.803C253.068 123.968 255.183 128.395 255.501 133.296L256.063 133.281L320.547 99.026L320.553 99.0254ZM338.21 146.192C341.439 146.192 344.35 144.906 346.449 142.807V142.791C348.548 140.692 349.855 137.765 349.855 134.551C349.855 131.343 348.548 128.432 346.449 126.312C344.335 124.213 341.423 122.906 338.21 122.906C334.98 122.906 332.069 124.213 329.97 126.291V126.307C327.871 128.421 326.564 131.333 326.564 134.546C326.564 137.775 327.85 140.687 329.949 142.786L329.965 142.801C332.064 144.9 334.975 146.187 338.204 146.187L338.21 146.192ZM54.3962 129.156C49.2816 129.156 45.1358 124.995 45.1358 119.859C45.1358 114.729 49.2816 110.562 54.3962 110.562C55.2087 110.562 56.0212 110.666 56.7764 110.864L82.2818 82.4843C74.5058 76.6094 64.8177 73.1198 54.3231 73.1198C41.5001 73.1198 29.9111 78.3229 21.5004 86.7185C13.1046 95.1143 7.91641 106.718 7.91641 119.525C7.91641 132.332 13.1039 143.937 21.5004 152.332C29.9119 160.728 41.5004 165.916 54.3231 165.916C67.1304 165.916 78.7351 160.728 87.1298 152.332C92.6871 146.774 96.8328 139.827 99.0204 132.029L62.0311 125.112C60.354 127.545 57.5675 129.154 54.3956 129.154L54.3962 129.156ZM124.703 118.01L116.995 97.7596L105.88 102.379C107.677 107.775 108.651 113.525 108.651 119.525C108.651 121.624 108.526 123.686 108.297 125.733L116.922 127.337C117.911 124.832 119.411 122.592 121.276 120.707L121.291 120.722C122.312 119.702 123.463 118.78 124.698 118.004L124.703 118.01ZM114.192 90.3702L105.76 68.1982L93.4841 81.8702C97.2237 85.7661 100.401 90.214 102.849 95.0838L114.192 90.3756V90.3702ZM124.317 94.7244L132.114 115.219C133.104 115.063 134.109 114.974 135.13 114.974C140.51 114.974 145.411 117.177 148.958 120.709L148.974 120.724C152.13 123.901 154.229 128.151 154.635 132.86L218.328 99.0317L204.078 61.5837L124.317 94.7244ZM135.13 146.194C138.359 146.194 141.271 144.907 143.37 142.808L143.385 142.793C145.484 140.694 146.771 137.782 146.771 134.553C146.771 131.324 145.484 128.412 143.385 126.313L143.37 126.298C141.271 124.214 138.359 122.912 135.13 122.912C131.901 122.912 128.989 124.22 126.89 126.298V126.313C124.791 128.428 123.484 131.339 123.484 134.553C123.484 137.782 124.771 140.694 126.87 142.793L126.885 142.808C128.984 144.907 131.896 146.194 135.125 146.194H135.13ZM67.9113 118.167L100.49 124.271C100.646 122.703 100.719 121.131 100.719 119.526C100.719 114.605 99.9588 109.88 98.5473 105.433L67.9113 118.167ZM88.162 87.7764L68.954 109.156L95.5167 98.1304C93.5427 94.3386 91.0531 90.8648 88.1625 87.7762L88.162 87.7764ZM533.802 119.083C532.375 118.093 530.963 117.036 529.62 115.906C526.057 112.89 522.865 109.328 520.13 105.057C519.953 104.776 519.812 104.474 519.708 104.156L513.167 84.016C512.146 84.865 511.156 85.7608 510.219 86.7139C501.823 95.1097 496.635 106.698 496.635 119.521C496.635 132.328 501.822 143.933 510.219 152.327C518.615 160.722 530.219 165.911 543.026 165.911C555.848 165.911 567.437 160.724 575.832 152.327C584.227 143.931 589.431 132.327 589.431 119.521C589.431 106.698 584.243 95.1085 575.832 86.7139C567.436 78.318 555.848 73.1152 543.026 73.1152C534.63 73.1152 526.744 75.3548 519.937 79.2715L527.083 101.266C529.271 104.584 531.844 107.422 534.74 109.855C535.708 110.683 536.734 111.459 537.776 112.198C539.276 111.157 541.073 110.558 543.031 110.558C548.146 110.558 552.292 114.719 552.292 119.855C552.292 124.985 548.146 129.152 543.031 129.152C537.917 129.152 533.771 124.99 533.771 119.855C533.771 119.589 533.786 119.344 533.807 119.079L533.802 119.083ZM449.281 117.656L494.505 69.5053L431.75 103.016L436.391 115.224C437.38 115.068 438.385 114.979 439.406 114.979C443.005 114.979 446.375 115.969 449.281 117.662L449.281 117.656ZM439.406 146.192C442.635 146.192 445.546 144.906 447.645 142.807L447.661 142.791C449.76 140.692 451.067 137.78 451.067 134.551C451.067 131.343 449.76 128.432 447.645 126.312V126.296C445.546 124.213 442.635 122.911 439.406 122.911C436.177 122.911 433.265 124.218 431.166 126.296V126.312C429.067 128.426 427.76 131.338 427.76 134.551C427.76 137.78 429.067 140.692 431.145 142.791L431.161 142.807C433.26 144.905 436.171 146.192 439.401 146.192H439.406ZM225.552 118.004L221.177 106.488L170.907 133.191L216.486 132.91C216.871 128.165 218.954 123.894 222.147 120.707V120.722C223.168 119.702 224.319 118.78 225.553 118.004L225.552 118.004Z" fill="#3B6BF9"/>
</svg>
